<?xml version="1.0" encoding="UTF-8"?><svg id="_レイヤー_1" xmlns="http://www.w3.org/2000/svg" width="17.78mm" height="28.1mm" viewBox="0 0 50.4 79.65"><g id="schematic"><rect x="14.4" y=".45" width="21.15" height="78.75" fill="none" stroke="#000" stroke-linecap="round" stroke-linejoin="round" stroke-width=".9"/><text id="label" transform="translate(18.83 54.1)" font-family="DroidSans, &apos;Droid Sans&apos;" font-size="3.5" isolation="isolate"><tspan x="0" y="0">TM1637</tspan></text><line x1=".35" y1="7.2" x2="14.4" y2="7.2" fill="none" stroke="#787878" stroke-linecap="round" stroke-linejoin="round" stroke-width=".7"/><rect id="connector0pin" y="6.85" width="14.4" height=".7" fill="none"/><text id="label0" transform="translate(15.8 7.9)" fill="#8c8c8c" font-family="DroidSans, &apos;Droid Sans&apos;" font-size="3.5" isolation="isolate"><tspan x="0" y="0">1</tspan></text><text transform="translate(6.51 6.15)" fill="#8c8c8c" font-family="DroidSans, &apos;Droid Sans&apos;" font-size="2.5" isolation="isolate"><tspan x="0" y="0">GND</tspan></text><line x1=".35" y1="14.4" x2="14.4" y2="14.4" fill="none" stroke="#787878" stroke-linecap="round" stroke-linejoin="round" stroke-width=".7"/><rect id="connector1pin" y="14.05" width="14.4" height=".7" fill="none"/><text id="label1" transform="translate(15.8 15.1)" fill="#8c8c8c" font-family="DroidSans, &apos;Droid Sans&apos;" font-size="3.5" isolation="isolate"><tspan x="0" y="0">2</tspan></text><text transform="translate(6.51 13.35)" fill="#8c8c8c" font-family="DroidSans, &apos;Droid Sans&apos;" font-size="2.5" isolation="isolate"><tspan x="0" y="0">SEG1</tspan></text><line x1=".35" y1="21.6" x2="14.4" y2="21.6" fill="none" stroke="#787878" stroke-linecap="round" stroke-linejoin="round" stroke-width=".7"/><rect id="connector2pin" y="21.25" width="14.4" height=".7" fill="none"/><text id="label2" transform="translate(15.8 22.3)" fill="#8c8c8c" font-family="DroidSans, &apos;Droid Sans&apos;" font-size="3.5" isolation="isolate"><tspan x="0" y="0">3</tspan></text><text transform="translate(6.51 20.55)" fill="#8c8c8c" font-family="DroidSans, &apos;Droid Sans&apos;" font-size="2.5" isolation="isolate"><tspan x="0" y="0">SEG2</tspan></text><line x1=".35" y1="28.8" x2="14.4" y2="28.8" fill="none" stroke="#787878" stroke-linecap="round" stroke-linejoin="round" stroke-width=".7"/><rect id="connector3pin" y="28.45" width="14.4" height=".7" fill="none"/><text id="label3" transform="translate(15.8 29.5)" fill="#8c8c8c" font-family="DroidSans, &apos;Droid Sans&apos;" font-size="3.5" isolation="isolate"><tspan x="0" y="0">4</tspan></text><text transform="translate(6.51 27.75)" fill="#8c8c8c" font-family="DroidSans, &apos;Droid Sans&apos;" font-size="2.5" isolation="isolate"><tspan x="0" y="0">SEG3</tspan></text><line x1=".35" y1="36" x2="14.4" y2="36" fill="none" stroke="#787878" stroke-linecap="round" stroke-linejoin="round" stroke-width=".7"/><rect id="connector4pin" y="35.65" width="14.4" height=".7" fill="none"/><text id="label4" transform="translate(15.8 36.7)" fill="#8c8c8c" font-family="DroidSans, &apos;Droid Sans&apos;" font-size="3.5" isolation="isolate"><tspan x="0" y="0">5</tspan></text><text transform="translate(6.51 34.95)" fill="#8c8c8c" font-family="DroidSans, &apos;Droid Sans&apos;" font-size="2.5" isolation="isolate"><tspan x="0" y="0">SEG4</tspan></text><line x1=".35" y1="43.2" x2="14.4" y2="43.2" fill="none" stroke="#787878" stroke-linecap="round" stroke-linejoin="round" stroke-width=".7"/><rect id="connector5pin" y="42.85" width="14.4" height=".7" fill="none"/><text id="label5" transform="translate(15.8 43.9)" fill="#8c8c8c" font-family="DroidSans, &apos;Droid Sans&apos;" font-size="3.5" isolation="isolate"><tspan x="0" y="0">6</tspan></text><text transform="translate(6.51 42.15)" fill="#8c8c8c" font-family="DroidSans, &apos;Droid Sans&apos;" font-size="2.5" isolation="isolate"><tspan x="0" y="0">SEG5</tspan></text><line x1=".35" y1="50.4" x2="14.4" y2="50.4" fill="none" stroke="#787878" stroke-linecap="round" stroke-linejoin="round" stroke-width=".7"/><rect id="connector6pin" y="50.05" width="14.4" height=".7" fill="none"/><text id="label6" transform="translate(15.8 51.1)" fill="#8c8c8c" font-family="DroidSans, &apos;Droid Sans&apos;" font-size="3.5" isolation="isolate"><tspan x="0" y="0">7</tspan></text><text transform="translate(6.51 49.35)" fill="#8c8c8c" font-family="DroidSans, &apos;Droid Sans&apos;" font-size="2.5" isolation="isolate"><tspan x="0" y="0">SEG6</tspan></text><line x1=".35" y1="57.6" x2="14.4" y2="57.6" fill="none" stroke="#787878" stroke-linecap="round" stroke-linejoin="round" stroke-width=".7"/><rect id="connector7pin" y="57.25" width="14.4" height=".7" fill="none"/><text id="label7" transform="translate(15.8 58.3)" fill="#8c8c8c" font-family="DroidSans, &apos;Droid Sans&apos;" font-size="3.5" isolation="isolate"><tspan x="0" y="0">8</tspan></text><text transform="translate(6.51 56.55)" fill="#8c8c8c" font-family="DroidSans, &apos;Droid Sans&apos;" font-size="2.5" isolation="isolate"><tspan x="0" y="0">SEG7</tspan></text><line x1=".35" y1="64.8" x2="14.4" y2="64.8" fill="none" stroke="#787878" stroke-linecap="round" stroke-linejoin="round" stroke-width=".7"/><rect id="connector8pin" y="64.45" width="14.4" height=".7" fill="none"/><text id="label8" transform="translate(15.8 65.5)" fill="#8c8c8c" font-family="DroidSans, &apos;Droid Sans&apos;" font-size="3.5" isolation="isolate"><tspan x="0" y="0">9</tspan></text><text transform="translate(6.51 63.75)" fill="#8c8c8c" font-family="DroidSans, &apos;Droid Sans&apos;" font-size="2.5" isolation="isolate"><tspan x="0" y="0">SEG8</tspan></text><line x1=".35" y1="72" x2="14.4" y2="72" fill="none" stroke="#787878" stroke-linecap="round" stroke-linejoin="round" stroke-width=".7"/><rect id="connector9pin" y="71.65" width="14.4" height=".7" fill="none"/><text id="label9" transform="translate(15.8 72.7)" fill="#8c8c8c" font-family="DroidSans, &apos;Droid Sans&apos;" font-size="3.5" isolation="isolate"><tspan x="0" y="0">10</tspan></text><text transform="translate(5.82 70.95)" fill="#8c8c8c" font-family="DroidSans, &apos;Droid Sans&apos;" font-size="2.5" isolation="isolate"><tspan x="0" y="0">GRID6</tspan></text><line x1="35.65" y1="7.2" x2="50.05" y2="7.2" fill="none" stroke="#787878" stroke-linecap="round" stroke-linejoin="round" stroke-width=".7"/><rect id="connector19pin" x="36" y="6.85" width="14.4" height=".7" fill="none"/><text id="label19" transform="translate(30.74 7.9)" fill="#8c8c8c" font-family="DroidSans, &apos;Droid Sans&apos;" font-size="3.5" isolation="isolate"><tspan x="0" y="0">20</tspan></text><text transform="translate(41.82 6.15)" fill="#8c8c8c" font-family="DroidSans, &apos;Droid Sans&apos;" font-size="2.5" isolation="isolate"><tspan x="0" y="0">K2</tspan></text><line x1="35.65" y1="14.4" x2="50.05" y2="14.4" fill="none" stroke="#787878" stroke-linecap="round" stroke-linejoin="round" stroke-width=".7"/><rect id="connector18pin" x="36" y="14.05" width="14.4" height=".7" fill="none"/><text id="label18" transform="translate(30.74 15.1)" fill="#8c8c8c" font-family="DroidSans, &apos;Droid Sans&apos;" font-size="3.5" isolation="isolate"><tspan x="0" y="0">19</tspan></text><text transform="translate(41.82 13.35)" fill="#8c8c8c" font-family="DroidSans, &apos;Droid Sans&apos;" font-size="2.5" isolation="isolate"><tspan x="0" y="0">K1</tspan></text><line x1="35.65" y1="21.6" x2="50.05" y2="21.6" fill="none" stroke="#787878" stroke-linecap="round" stroke-linejoin="round" stroke-width=".7"/><rect id="connector17pin" x="36" y="21.25" width="14.4" height=".7" fill="none"/><text id="label17" transform="translate(30.74 22.3)" fill="#8c8c8c" font-family="DroidSans, &apos;Droid Sans&apos;" font-size="3.5" isolation="isolate"><tspan x="0" y="0">18</tspan></text><text transform="translate(41.82 20.55)" fill="#8c8c8c" font-family="DroidSans, &apos;Droid Sans&apos;" font-size="2.5" isolation="isolate"><tspan x="0" y="0">CLK</tspan></text><line x1="35.65" y1="28.8" x2="50.05" y2="28.8" fill="none" stroke="#787878" stroke-linecap="round" stroke-linejoin="round" stroke-width=".7"/><rect id="connector16pin" x="36" y="28.45" width="14.4" height=".7" fill="none"/><text id="label16" transform="translate(30.74 29.5)" fill="#8c8c8c" font-family="DroidSans, &apos;Droid Sans&apos;" font-size="3.5" isolation="isolate"><tspan x="0" y="0">17</tspan></text><text transform="translate(41.82 27.75)" fill="#8c8c8c" font-family="DroidSans, &apos;Droid Sans&apos;" font-size="2.5" isolation="isolate"><tspan x="0" y="0" letter-spacing="0em">DI</tspan><tspan x="2.51" y="0">O</tspan></text><line x1="35.65" y1="36" x2="50.05" y2="36" fill="none" stroke="#787878" stroke-linecap="round" stroke-linejoin="round" stroke-width=".7"/><rect id="connector15pin" x="36" y="35.65" width="14.4" height=".7" fill="none"/><text id="label15" transform="translate(30.74 36.7)" fill="#8c8c8c" font-family="DroidSans, &apos;Droid Sans&apos;" font-size="3.5" isolation="isolate"><tspan x="0" y="0">16</tspan></text><text transform="translate(41.82 34.95)" fill="#8c8c8c" font-family="DroidSans, &apos;Droid Sans&apos;" font-size="2.5" isolation="isolate"><tspan x="0" y="0">VDD</tspan></text><line x1="35.65" y1="43.2" x2="50.05" y2="43.2" fill="none" stroke="#787878" stroke-linecap="round" stroke-linejoin="round" stroke-width=".7"/><rect id="connector14pin" x="36" y="42.85" width="14.4" height=".7" fill="none"/><text id="label14" transform="translate(30.74 43.9)" fill="#8c8c8c" font-family="DroidSans, &apos;Droid Sans&apos;" font-size="3.5" isolation="isolate"><tspan x="0" y="0">15</tspan></text><text transform="translate(41.82 42.15)" fill="#8c8c8c" font-family="DroidSans, &apos;Droid Sans&apos;" font-size="2.5" isolation="isolate"><tspan x="0" y="0">GRID1</tspan></text><line x1="35.65" y1="50.4" x2="50.05" y2="50.4" fill="none" stroke="#787878" stroke-linecap="round" stroke-linejoin="round" stroke-width=".7"/><rect id="connector13pin" x="36" y="50.05" width="14.4" height=".7" fill="none"/><text id="label13" transform="translate(30.74 51.1)" fill="#8c8c8c" font-family="DroidSans, &apos;Droid Sans&apos;" font-size="3.5" isolation="isolate"><tspan x="0" y="0">14</tspan></text><text transform="translate(41.82 49.35)" fill="#8c8c8c" font-family="DroidSans, &apos;Droid Sans&apos;" font-size="2.5" isolation="isolate"><tspan x="0" y="0">GRID2</tspan></text><line x1="35.65" y1="57.6" x2="50.05" y2="57.6" fill="none" stroke="#787878" stroke-linecap="round" stroke-linejoin="round" stroke-width=".7"/><rect id="connector12pin" x="36" y="57.25" width="14.4" height=".7" fill="none"/><text id="label12" transform="translate(30.74 58.3)" fill="#8c8c8c" font-family="DroidSans, &apos;Droid Sans&apos;" font-size="3.5" isolation="isolate"><tspan x="0" y="0">13</tspan></text><text transform="translate(41.82 56.55)" fill="#8c8c8c" font-family="DroidSans, &apos;Droid Sans&apos;" font-size="2.5" isolation="isolate"><tspan x="0" y="0">GRID3</tspan></text><line x1="35.65" y1="64.8" x2="50.05" y2="64.8" fill="none" stroke="#787878" stroke-linecap="round" stroke-linejoin="round" stroke-width=".7"/><rect id="connector11pin" x="36" y="64.45" width="14.4" height=".7" fill="none"/><text id="label11" transform="translate(30.74 65.5)" fill="#8c8c8c" font-family="DroidSans, &apos;Droid Sans&apos;" font-size="3.5" isolation="isolate"><tspan x="0" y="0">12</tspan></text><text transform="translate(41.82 63.75)" fill="#8c8c8c" font-family="DroidSans, &apos;Droid Sans&apos;" font-size="2.5" isolation="isolate"><tspan x="0" y="0">GRID4</tspan></text><line x1="35.65" y1="72" x2="50.05" y2="72" fill="none" stroke="#787878" stroke-linecap="round" stroke-linejoin="round" stroke-width=".7"/><rect id="connector10pin" x="36" y="71.65" width="14.4" height=".7" fill="none"/><text id="label10" transform="translate(30.74 72.7)" fill="#8c8c8c" font-family="DroidSans, &apos;Droid Sans&apos;" font-size="3.5" isolation="isolate"><tspan x="0" y="0">11</tspan></text><text transform="translate(41.82 70.95)" fill="#8c8c8c" font-family="DroidSans, &apos;Droid Sans&apos;" font-size="2.5" isolation="isolate"><tspan x="0" y="0">GRID5</tspan></text></g></svg>