<?xml version="1.0" encoding="UTF-8"?><svg id="_レイヤー_1" xmlns="http://www.w3.org/2000/svg" width="26mm" height="8.49mm" viewBox="0 0 73.7 24.05"><rect id="middle" y="2.35" width="73.7" height="19.44" fill="#303030"/><rect id="top" y="2.36" width="73.7" height="1.77" fill="#3d3d3d"/><rect id="bottom" y="20.02" width="73.7" height="1.77" fill="#040000"/><polygon id="right" points="73.7 2.36 73.16 4.13 73.16 20.02 73.7 21.8 73.7 2.36" fill="#141413"/><polygon id="left" points="0 2.36 .54 4.13 .54 20.02 0 21.8 0 2.36" fill="#1e1f1f"/><polygon id="left-upper-rect" points="3.6 8.48 .54 8.45 .4 9.97 .4 12.08 3.6 12.08 3.6 8.48" fill="#1b1c1b"/><polygon id="left-lower-rect" points=".54 15.71 3.6 15.71 3.6 12.08 .4 12.08 .4 14.18 .54 15.71" fill="#383838"/><path id="slot" d="m.4,9.97v4.2c1.06-.12,1.89-1.01,1.89-2.1,0-1.09-.82-1.97-1.89-2.1Z" fill="#262626"/><path id="cover" d="m.54,4.13v4.31c1.71.32,3.02,1.82,3.02,3.63s-1.3,3.31-3.02,3.64h0s3.6,0,3.6,0V4.13H.54Z" fill="#303030"/><circle cx="6.74" cy="12.07" r="1.48" fill="#202121"/><rect id="connector20pin" x="2.52" y=".2" width="2.16" height="3.12" fill="#8d8d8d"/><rect id="connector20terminal" x="2.52" y=".2" width="2.16" height="2.16" fill="#8d8d8d"/><polygon points="6.12 3.32 6.12 2.54 4.68 1.88 2.52 1.88 2.52 3.32 6.12 3.32" fill="#8d8d8d"/><rect id="connector11pin" x="66.94" width="2.16" height="3.12" fill="#8d8d8d"/><rect id="connector11terminal" x="66.94" width="2.16" height="2.16" fill="#8d8d8d"/><polygon points="69.1 3.12 69.1 1.68 66.94 1.68 65.5 2.35 65.5 3.12 69.1 3.12" fill="#8d8d8d"/><rect id="connector19pin" x="9.72" y=".2" width="2.16" height="3.12" fill="#8d8d8d"/><rect id="connector19terminal" x="9.72" y=".2" width="2.16" height="2.16" fill="#8d8d8d"/><polygon points="13.32 3.32 13.32 2.54 11.88 1.88 9.72 1.88 8.28 2.54 8.28 3.32 13.32 3.32" fill="#8d8d8d"/><rect id="connector18pin" x="16.92" y=".2" width="2.16" height="3.12" fill="#8d8d8d"/><rect id="connector18terminal" x="16.92" y=".2" width="2.16" height="2.16" fill="#8d8d8d"/><polygon points="20.52 3.32 20.52 2.54 19.08 1.88 16.92 1.88 15.48 2.54 15.48 3.32 20.52 3.32" fill="#8d8d8d"/><rect id="connector17pin" x="24.06" y=".2" width="2.16" height="3.12" fill="#8d8d8d"/><rect id="connector17terminal" x="24.06" y=".2" width="2.16" height="2.16" fill="#8d8d8d"/><polygon points="27.66 3.32 27.66 2.54 26.22 1.88 24.06 1.88 22.62 2.54 22.62 3.32 27.66 3.32" fill="#8d8d8d"/><rect id="connector16pin" x="31.22" y=".2" width="2.16" height="3.12" fill="#8d8d8d"/><rect id="connector16terminal" x="31.22" y=".2" width="2.16" height="2.16" fill="#8d8d8d"/><polygon points="34.82 3.32 34.82 2.54 33.38 1.88 31.22 1.88 29.78 2.54 29.78 3.32 34.82 3.32" fill="#8d8d8d"/><rect id="connector15pin" x="38.36" y=".2" width="2.16" height="3.12" fill="#8d8d8d"/><rect id="connector15terminal" x="38.36" y=".2" width="2.16" height="2.16" fill="#8d8d8d"/><polygon points="41.96 3.32 41.96 2.54 40.52 1.88 38.36 1.88 36.92 2.54 36.92 3.32 41.96 3.32" fill="#8d8d8d"/><rect id="connector14pin" x="45.51" y=".12" width="2.16" height="3.12" fill="#8d8d8d"/><rect id="connector14terminal" x="45.51" y=".12" width="2.16" height="2.16" fill="#8d8d8d"/><polygon points="49.11 3.25 49.11 2.47 47.67 1.81 45.51 1.81 44.07 2.47 44.07 3.25 49.11 3.25" fill="#8d8d8d"/><rect id="connector13pin" x="52.65" y=".12" width="2.16" height="3.12" fill="#8d8d8d"/><rect id="connector13terminal" x="52.65" y=".12" width="2.16" height="2.16" fill="#8d8d8d"/><polygon points="56.25 3.25 56.25 2.47 54.81 1.81 52.65 1.81 51.21 2.47 51.21 3.25 56.25 3.25" fill="#8d8d8d"/><rect id="connector12pin" x="59.79" y=".12" width="2.16" height="3.12" fill="#8d8d8d"/><rect id="connector12terminal" x="59.79" y=".12" width="2.16" height="2.16" fill="#8d8d8d"/><polygon points="63.39 3.25 63.39 2.47 61.95 1.81 59.79 1.81 58.35 2.47 58.35 3.25 63.39 3.25" fill="#8d8d8d"/><rect id="connector10pin" x="66.94" y="20.93" width="2.16" height="3.12" fill="#8d8d8d"/><rect id="connector10terminal" x="66.94" y="21.89" width="2.16" height="2.16" fill="#8d8d8d"/><polygon points="65.5 20.93 65.5 21.71 66.94 22.37 69.1 22.37 69.1 20.93 65.5 20.93" fill="#8d8d8d"/><rect id="connector1pin" x="2.52" y="20.89" width="2.16" height="3.12" fill="#8d8d8d"/><rect id="connector1terminal" x="2.52" y="21.86" width="2.16" height="2.16" fill="#8d8d8d"/><polygon points="2.52 20.89 2.52 22.33 4.68 22.33 6.12 21.67 6.12 20.89 2.52 20.89" fill="#8d8d8d"/><rect id="connector9pin" x="59.74" y="20.93" width="2.16" height="3.12" fill="#8d8d8d"/><rect id="connector9terminal" x="59.74" y="21.89" width="2.16" height="2.16" fill="#8d8d8d"/><polygon points="58.3 20.93 58.3 21.71 59.74 22.37 61.9 22.37 63.34 21.71 63.34 20.93 58.3 20.93" fill="#8d8d8d"/><rect id="connector8pin" x="52.54" y="20.93" width="2.16" height="3.12" fill="#8d8d8d"/><rect id="connector8terminal" x="52.54" y="21.89" width="2.16" height="2.16" fill="#8d8d8d"/><polygon points="51.1 20.93 51.1 21.71 52.54 22.37 54.7 22.37 56.14 21.71 56.14 20.93 51.1 20.93" fill="#8d8d8d"/><rect id="connector7pin" x="45.39" y="20.93" width="2.16" height="3.12" fill="#8d8d8d"/><rect id="connector7terminal" x="45.39" y="21.89" width="2.16" height="2.16" fill="#8d8d8d"/><polygon points="43.95 20.93 43.95 21.71 45.39 22.37 47.55 22.37 48.99 21.71 48.99 20.93 43.95 20.93" fill="#8d8d8d"/><rect id="connector6pin" x="38.24" y="20.93" width="2.16" height="3.12" fill="#8d8d8d"/><rect id="connector6terminal" x="38.24" y="21.89" width="2.16" height="2.16" fill="#8d8d8d"/><polygon points="36.8 20.93 36.8 21.71 38.24 22.37 40.4 22.37 41.84 21.71 41.84 20.93 36.8 20.93" fill="#8d8d8d"/><rect id="connector5pin" x="31.09" y="20.93" width="2.16" height="3.12" fill="#8d8d8d"/><rect id="connector5terminal" x="31.09" y="21.89" width="2.16" height="2.16" fill="#8d8d8d"/><polygon points="29.65 20.93 29.65 21.71 31.09 22.37 33.25 22.37 34.69 21.71 34.69 20.93 29.65 20.93" fill="#8d8d8d"/><rect id="connector4pin" x="23.95" y="20.93" width="2.16" height="3.12" fill="#8d8d8d"/><rect id="connector4terminal" x="23.95" y="21.89" width="2.16" height="2.16" fill="#8d8d8d"/><polygon points="22.51 20.93 22.51 21.71 23.95 22.37 26.11 22.37 27.55 21.71 27.55 20.93 22.51 20.93" fill="#8d8d8d"/><rect id="connector3pin" x="16.81" y="20.93" width="2.16" height="3.12" fill="#8d8d8d"/><rect id="connector3terminal" x="16.81" y="21.89" width="2.16" height="2.16" fill="#8d8d8d"/><polygon points="15.37 20.93 15.37 21.71 16.81 22.37 18.97 22.37 20.41 21.71 20.41 20.93 15.37 20.93" fill="#8d8d8d"/><rect id="connector2pin" x="9.66" y="20.93" width="2.16" height="3.12" fill="#8d8d8d"/><rect id="connector2terminal" x="9.66" y="21.89" width="2.16" height="2.16" fill="#8d8d8d"/><polygon points="8.22 20.93 8.22 21.71 9.66 22.37 11.82 22.37 13.26 21.71 13.26 20.93 8.22 20.93" fill="#8d8d8d"/><circle cx="60.87" cy="12.34" r="1.48" fill="#202121"/><text transform="translate(28.51 10.97) scale(1.11 1)" fill="#513d1d" font-family="DroidSans, &apos;Droid Sans&apos;" font-size="7.89"><tspan x="0" y="0">TM1637</tspan></text><text transform="translate(28.59 16.56) scale(1.03 1)" fill="#513d1d" font-family="DroidSans, &apos;Droid Sans&apos;" font-size="5"><tspan x="0" y="0">2140BF831JT</tspan></text><polyline points="9.66 5.86 15.37 5.86 17.89 5.86" fill="#513d1d" stroke="#513d1d" stroke-miterlimit="10"/><polyline points="15.37 5.86 12.38 17.51 10.3 17.51" fill="none" stroke="#513d1d" stroke-miterlimit="10"/><line x1="17.28" y1="7.17" x2="14.75" y2="18.09" fill="none" stroke="#513d1d" stroke-miterlimit="10"/><polygon points="19.6 11.8 18.33 14.8 19.6 14.8 19.6 11.8" fill="#513d1d" stroke="#513d1d" stroke-miterlimit="10" stroke-width=".5"/><polygon points="22.62 11.8 21.36 14.8 22.62 14.8 22.62 11.8" fill="#513d1d" stroke="#513d1d" stroke-miterlimit="10" stroke-width=".5"/><polygon points="20.41 8.45 20.41 15.17 21.85 8.45 20.41 8.45" fill="#513d1d"/><circle cx="21.13" cy="7.33" r=".57" fill="#513d1d" stroke="#513d1d" stroke-miterlimit="10" stroke-width=".5"/></svg>